<svg width="500" height="500" viewBox="0 0 500 500" fill="none" xmlns="http://www.w3.org/2000/svg">
<rect width="500" height="500" fill="#C02A20"/>
<path d="M38.1577 253.116L36.6539 252.36C33.2705 250.471 30.639 247.637 28.7593 244.048C26.1278 239.136 25 234.602 25 229.879L25.3759 227.423C25.3759 223.645 26.3158 220.244 28.0075 217.033L29.5112 214.199C30.2631 212.688 31.3909 211.365 32.3307 210.043C33.4585 208.721 33.6465 207.02 33.2705 205.509L32.3307 202.486C31.2029 198.708 30.451 194.93 30.451 191.151L29.8871 188.884C29.8871 184.728 31.0149 180.572 33.6465 177.549L35.5261 175.094C36.8419 173.204 38.9096 172.071 41.1652 171.315C43.0448 170.749 44.3606 168.859 44.5486 166.592L44.9245 160.169C44.9245 155.069 47.3681 150.346 51.1274 146.945L55.6386 143.545C56.5784 142.6 57.5183 141.655 58.2701 140.144C59.21 139.011 59.3979 137.499 59.21 136.366C58.834 134.477 59.21 133.91 60.1498 133.721C63.1573 134.855 65.037 134.477 66.3527 132.965L68.7963 129.754L75.5631 122.197C77.4428 120.308 78.1946 116.908 77.0668 114.263L74.8112 109.351C74.4353 108.217 74.8112 106.895 75.7511 106.517C78.1946 106.517 79.8863 107.462 80.6382 108.973L81.3901 110.295C82.5179 112.562 85.1494 113.696 87.0291 112.751C91.1643 111.24 94.5478 110.862 97.7432 110.862H103.758C107.893 110.862 111.277 108.028 112.029 103.683C112.781 98.3938 114.66 94.2376 117.292 91.4039C120.111 88.1923 123.307 85.7364 127.066 83.8473C131.953 81.2024 134.961 77.4241 135.9 72.5123C137.216 66.467 140.412 62.1219 144.735 59.2882L159.02 51.1648L163.156 48.7089C165.599 47.1976 167.855 45.3084 169.735 43.0415L173.494 38.5075C175.374 36.6183 177.253 35.2959 179.509 34.7292C181.388 34.1624 184.02 33.7846 186.276 33.9735L193.794 34.5402C197.554 34.5402 200.561 35.4848 203.569 36.8072L205.448 37.7518C207.328 38.5075 209.208 38.1296 210.147 36.8072L211.839 35.8627L219.922 27.3614C221.801 25.4723 224.057 24.7166 226.501 25.0945C228.944 25.4723 231.388 26.4169 233.643 27.5504C237.027 29.4395 239.846 30.1952 243.042 30.1952H244.921C249.057 30.1952 253.192 30.7619 257.327 31.7065L260.147 32.4622C262.966 33.2178 265.786 32.0843 267.665 29.8174C268.229 28.8728 269.545 28.6839 270.297 29.4395C270.861 29.8174 271.049 30.1952 271.237 30.7619C271.613 34.5402 273.868 37.374 276.876 38.3186L279.883 39.2631C283.079 40.2077 285.898 42.2858 287.778 44.9306C289.657 47.7643 291.913 50.5981 294.545 52.4872L296.424 54.3764C298.304 56.2656 300.935 57.0212 303.567 56.8323H314.657C319.168 56.8323 323.491 57.588 327.815 59.4771C331.95 61.3663 336.273 61.7441 340.22 60.2328C344.356 58.9104 348.679 58.3436 353.002 58.9104L361.085 60.2328C364.844 60.6106 368.603 62.4998 370.859 65.3335L371.799 66.2781C373.679 68.1673 375.558 70.6232 377.438 73.268C378.566 75.7239 381.197 77.0463 383.829 77.0463H395.483C398.302 77.0463 401.122 77.613 403.377 78.9355C405.821 80.8246 407.889 82.7138 409.768 84.6029L411.648 87.0588C413.904 89.7037 415.031 93.2931 414.843 97.0714C414.843 100.094 417.099 102.739 420.106 102.739L423.866 103.117C426.497 103.117 428.753 105.006 430.069 107.462L431.948 111.24L436.835 122.197C437.587 124.086 437.775 125.975 437.587 127.487C437.587 129.376 438.151 130.887 439.467 131.643L441.347 132.965C443.79 134.855 445.106 137.688 444.73 140.9L443.414 149.779L443.038 153.557C442.662 155.446 443.602 157.902 445.294 159.225C448.114 161.114 449.429 163.57 449.617 166.403V170.182C449.617 172.071 449.241 174.338 447.738 175.849C446.61 177.361 445.858 179.25 445.858 181.517L446.422 185.862C446.422 188.884 448.301 191.529 450.181 193.418C452.813 195.308 454.316 198.33 454.692 201.353C455.444 206.076 455.632 209.854 455.632 213.632V217.977C455.632 219.489 455.632 221 456.196 222.511C456.572 223.834 457.512 225.156 458.64 225.912L462.399 228.746C466.158 231.202 468.79 234.413 470.294 238.758C472.173 242.914 472.737 247.259 472.737 251.604V253.116C472.737 256.516 472.361 260.106 471.233 263.317C470.294 266.718 470.482 269.929 471.797 272.763C473.301 275.408 474.241 278.431 474.617 281.642C475.369 285.42 474.993 289.199 473.677 292.221L473.301 293.544C472.361 295.811 470.858 297.889 468.978 299.589C467.098 301.478 465.218 302.612 464.091 303.934C462.963 305.068 462.211 306.957 462.775 308.657L463.339 311.302C464.279 315.08 464.279 318.858 463.339 322.259V323.77C462.587 326.604 461.459 329.06 460.331 331.327C459.016 333.783 457.136 335.672 454.692 336.994L451.873 338.884C450.557 339.639 449.617 341.339 449.617 343.04C449.617 344.929 448.865 346.818 447.738 347.951L444.918 351.73C443.038 354.186 440.595 356.264 437.963 357.397C435.332 359.286 433.076 361.176 431.384 363.065C429.505 365.332 428.001 367.977 427.249 370.621C426.497 374.022 423.866 375.911 421.046 375.911H410.896C408.265 375.911 405.821 377.8 404.693 380.067C403.377 383.09 402.062 385.168 400.37 387.057C398.49 388.946 397.362 391.213 396.611 393.858C396.235 396.125 394.355 397.636 392.475 396.881C390.032 395.747 387.588 396.881 386.46 398.77C384.205 402.548 381.949 405.382 379.506 407.838L378.19 408.971C375.746 410.86 372.551 412.372 369.731 412.372C366.348 412.372 364.656 413.883 364.092 416.15C363.528 418.039 363.152 420.495 362.965 422.573C362.589 424.84 361.837 426.918 361.085 428.807L360.145 429.941C358.265 432.775 356.762 435.608 354.882 438.064L354.13 439.198C351.686 442.409 348.491 444.865 344.732 445.81C340.22 447.321 336.273 447.699 332.326 447.699H329.694C327.815 447.699 325.935 448.833 324.619 450.722L323.491 452.611L322.364 454.878L319.92 459.034C318.04 462.434 315.221 464.701 311.462 465.835C307.702 466.78 303.379 467.157 299.432 466.968L296.424 466.591C293.793 466.591 291.349 465.835 288.906 464.701C287.026 463.946 284.394 464.701 283.267 466.591C281.387 469.235 279.131 470.747 276.688 471.502L271.049 473.392C267.289 474.336 263.154 474.336 259.207 473.392L256.199 472.447C254.32 472.447 252.44 471.502 250.936 470.558C249.057 469.613 247.177 469.235 245.297 469.424L242.854 469.802C239.094 470.18 235.711 469.802 232.327 468.858L227.252 467.724C224.997 466.968 222.929 465.457 221.613 463.379C220.674 461.49 218.606 459.979 215.974 459.601H209.959C206.2 459.034 202.817 457.712 200.561 454.878L193.042 447.699L190.411 445.432L186.276 442.409L183.832 440.52C181.013 438.631 177.629 437.12 174.058 436.742L162.78 434.853C161.652 434.853 160.9 434.475 159.772 434.286L155.449 433.341C153.569 432.964 151.69 431.452 150.374 429.563C149.246 427.674 147.178 426.918 145.299 427.674C141.539 429.185 138.532 429.563 135.525 430.13H132.893C128.006 430.508 123.495 429.752 118.983 427.674C114.472 425.785 111.465 422.951 108.645 419.362C106.39 416.15 103.006 413.694 98.871 412.939L93.6079 411.805C89.8486 411.049 86.0892 409.538 82.7058 407.271C78.9465 404.626 77.0668 402.17 75.5631 399.148C74.0594 396.314 73.1195 393.102 72.9316 389.702V388.191C72.5556 384.412 69.9241 381.012 66.3527 380.067C62.0295 378.745 58.834 376.856 56.0145 374.4C53.383 371.944 51.8793 368.354 51.8793 364.576L52.2552 356.264C52.2552 353.052 51.3154 350.218 49.0598 348.14C46.8042 345.873 45.3004 343.04 45.3004 340.017L44.7365 333.216C44.3606 328.304 43.4208 323.392 42.293 318.481C41.1652 314.136 42.8569 309.791 46.4282 307.712L47.744 306.768C49.6237 305.445 50.3755 302.99 49.2477 300.723L47.744 298.833C45.8643 296.944 43.9847 295.622 42.105 295.055C40.6013 294.677 40.2253 293.166 40.2253 292.221L42.105 289.954C43.2328 288.632 43.0448 286.554 42.105 285.42C40.6013 283.909 39.8494 282.02 39.6614 280.131L39.2855 266.907C39.2855 264.262 39.6614 261.617 40.4133 258.972C41.1652 256.705 40.4133 254.06 38.1577 252.927V253.116ZM224.245 228.179C225.561 226.856 225.373 224.401 224.245 223.456C222.365 221.945 221.049 220.244 219.922 218.355L218.042 215.333C216.726 212.877 215.035 210.799 213.155 208.909L212.779 208.532C210.899 207.02 209.583 205.131 208.456 202.864C207.516 200.975 207.516 199.086 208.456 197.197L209.583 195.308C210.711 193.418 211.463 190.774 211.463 188.507V187.751C211.463 185.862 210.711 183.973 209.583 182.083C208.832 180.572 208.08 178.683 207.704 176.794V175.66C207.14 173.393 207.704 170.937 209.208 169.048C210.711 166.592 211.839 164.325 212.403 161.492V161.114C213.155 159.225 212.779 156.769 211.651 154.88C210.523 152.99 210.147 151.101 210.899 148.834L212.215 145.056C213.343 141.655 215.035 138.633 217.29 135.988L219.922 133.154L221.801 130.887L222.929 129.754C224.057 128.62 224.245 126.731 223.305 125.22C222.365 123.331 221.801 121.442 222.177 119.552L222.553 116.908C223.117 113.129 224.433 109.351 226.876 106.328L227.628 105.573C230.448 101.794 234.019 99.3384 238.154 98.0159L243.23 96.1268C245.485 95.3711 246.989 92.9152 246.989 90.4593C246.989 87.4367 247.929 84.7918 249.62 82.3359L250.56 81.3914C252.44 78.1798 254.696 74.9682 256.199 71.5677L257.515 69.1118C257.891 68.5451 258.079 67.7894 258.079 67.2227C258.079 64.0111 256.199 61.1774 253.192 60.9885L244.921 60.4217C240.222 60.0439 235.523 60.4217 231.012 60.4217L215.035 62.3109C212.591 62.3109 210.711 64.2 210.523 66.8448C210.523 69.4897 208.644 71.7567 206.388 72.5123L199.621 74.4015L197.742 74.9682L192.103 76.8574C187.967 78.1798 184.584 81.2024 182.704 85.3586L181.2 87.8145C179.321 91.9706 176.125 95.3711 172.178 97.827C168.419 100.283 166.539 104.25 166.163 108.784V110.673C165.787 114.452 164.659 118.23 162.404 120.875L161.464 122.386C159.96 124.275 159.584 126.731 160.524 128.809C161.464 131.076 162.028 133.532 161.84 135.988V146.001C161.84 148.645 159.96 150.912 158.081 151.668C155.449 152.613 153.757 154.691 153.005 157.335L152.066 161.114C151.314 164.892 152.63 168.67 155.825 170.937C158.832 173.204 160.712 176.605 161.464 180.761V184.162C162.028 187.94 164.096 191.718 167.479 193.607C170.862 195.874 173.494 199.275 174.998 203.053L175.937 206.076C177.441 210.232 180.825 212.688 184.584 213.066H185.712C189.095 213.066 192.103 214.955 193.982 217.977C195.862 221 198.869 223.078 202.253 223.645L207.516 225.156C210.711 226.101 213.719 227.801 216.162 230.257L216.538 230.635C218.418 232.146 221.425 231.957 223.117 229.879L224.433 228.368L224.245 228.179ZM245.673 210.799C247.553 211.932 249.432 211.365 250.184 209.665L250.748 208.721C252.064 206.076 253.756 203.431 255.635 201.164L259.395 195.496C259.959 195.496 260.147 195.119 260.335 194.741L264.846 188.696C266.725 186.806 268.981 185.484 271.613 185.484C274.056 185.484 276.124 184.162 277.252 181.706C278.003 179.061 279.131 176.605 281.387 174.527L282.327 173.393C284.206 171.504 286.086 170.56 287.966 169.615C290.409 169.237 292.665 168.859 294.92 168.859H300.559C302.815 168.859 304.695 167.915 305.823 166.026C306.95 164.136 308.642 162.814 310.522 161.869L312.401 161.114C315.409 159.791 318.792 158.847 322.176 158.469L325.935 158.091C328.191 158.091 330.634 158.091 332.89 159.414C334.769 160.736 337.213 160.547 339.093 159.036L340.408 158.28C343.228 156.391 346.423 154.88 349.807 154.502H350.183C353.942 153.746 357.325 153.746 361.085 153.935H362.965C366.724 154.502 369.919 155.824 372.363 158.658L372.927 159.414C374.806 161.303 377.814 162.814 380.445 162.814H383.641C384.581 162.814 385.521 162.436 386.084 161.492C386.648 160.925 387.588 160.358 388.528 160.358H390.408C393.039 160.358 395.483 161.114 397.926 161.869L401.122 163.192C404.129 164.136 407.325 165.081 410.52 165.459H412.776C414.279 165.459 415.219 164.514 415.219 163.192C415.219 161.303 414.843 159.414 413.904 157.902L412.588 154.88C411.084 152.424 409.956 149.779 408.828 147.323L408.452 146.378C407.513 144.489 407.513 142.6 408.452 140.711V139.766C408.828 138.255 408.077 136.555 406.573 135.988H405.069C402.062 135.043 399.43 133.343 397.55 130.887L395.671 128.998C393.791 127.109 392.663 124.275 391.911 121.441C390.972 118.986 388.904 117.096 386.272 117.096H378.378C375.558 116.719 373.115 115.207 371.423 112.94L370.671 111.996C369.355 110.107 368.228 107.84 367.476 105.573C366.536 103.683 364.468 102.55 362.589 103.117L360.333 103.872C356.574 105.195 352.814 105.761 349.055 105.384L346.047 105.006C342.852 105.006 339.845 103.683 337.401 101.794L335.521 100.472C334.018 99.3384 332.514 98.5827 330.822 97.827C328.942 97.0714 327.439 97.4492 326.311 98.7716L325.371 99.9051C323.491 101.794 320.86 103.306 318.228 103.683L308.078 104.25C306.198 104.25 304.319 105.195 303.003 106.517C301.499 107.84 299.808 108.784 297.928 109.162H297.552C295.672 109.162 293.793 110.484 291.913 111.807V112.185C290.033 114.074 287.59 115.018 285.146 115.018L284.394 115.396C282.139 115.396 279.883 115.396 277.628 115.963H275.372C272.176 116.53 269.733 119.175 268.981 122.575L268.229 126.92C267.665 129.943 266.349 132.588 264.47 135.043C262.59 137.31 260.335 138.822 257.515 138.822H254.696H254.32C252.44 139.2 250.56 141.278 250.936 143.545C251.312 146.756 250.936 149.59 250.372 152.424L249.62 155.635C248.869 158.469 246.989 160.736 244.545 161.681L243.418 162.247H243.042C241.914 163.003 241.162 164.703 242.102 166.026C243.23 167.915 243.606 169.804 243.418 171.693L242.854 177.738C242.854 180.005 241.914 182.083 240.974 183.973C239.846 185.862 239.846 187.751 240.598 189.64L242.478 193.796C243.418 195.685 243.605 197.575 243.042 199.842C242.478 201.731 242.102 203.62 242.29 205.509C242.29 207.398 243.418 209.287 244.921 210.043L245.297 210.421L245.673 210.799ZM394.167 347.385C396.047 349.274 398.866 350.03 401.122 348.518L404.881 346.062C406.761 344.74 408.265 342.851 409.016 340.395V340.017L410.896 334.35L412.024 332.46L412.776 330.571L413.528 329.249C414.279 327.738 415.407 326.604 417.287 326.037L418.039 325.659C419.543 325.282 420.482 323.77 420.482 322.259C420.482 320.37 421.422 318.858 422.362 317.536L423.866 316.214L427.625 311.302V310.924C428.753 309.413 429.505 307.712 429.881 305.823C430.257 303.934 429.881 302.045 429.129 300.156L428.753 299.4C428.001 297.511 427.625 296.189 427.437 294.488L426.873 289.199L426.309 283.531C426.309 281.642 427.061 279.753 428.189 277.864C429.505 276.352 430.445 274.463 431.196 272.574V271.818L431.572 271.441C431.948 269.551 431.009 267.662 429.317 267.662C427.437 266.718 425.557 265.206 424.994 262.939L424.43 261.806C423.49 258.405 422.926 255.005 422.926 251.604L423.302 242.159V241.592C423.302 238.38 420.67 235.924 417.663 235.924H417.287C413.528 235.924 410.52 234.791 407.889 232.146L406.385 230.257L402.626 225.912L397.738 220.244C395.859 217.6 393.979 215.333 391.535 213.066C389.656 211.176 386.836 209.287 384.017 208.909L380.257 208.343C378.378 207.965 375.934 207.02 373.867 205.698C372.363 204.564 370.107 204.942 368.604 206.454L366.16 209.098L365.032 209.854C363.716 210.232 362.401 209.476 361.837 207.965C361.085 205.698 361.085 203.053 362.213 200.786V199.653C362.213 198.33 361.085 197.386 359.957 197.763H356.95C353.566 197.763 350.183 197.386 346.987 195.874L345.108 195.119C343.228 194.174 340.972 193.607 338.905 193.607C337.025 193.607 335.145 193.985 333.266 195.119L332.514 195.685C330.258 197.197 327.627 197.952 324.995 198.141H318.792C315.973 198.141 313.153 199.086 311.274 200.597C308.83 202.109 306.198 203.053 303.379 203.62L298.304 204.376C296.048 204.942 293.605 205.887 291.537 207.587C289.657 209.476 287.026 210.61 284.582 211.365L283.642 211.743C280.635 212.688 278.003 214.577 276.124 217.411L273.868 219.678C272.552 221.567 272.552 223.834 273.868 225.723C274.996 227.612 277.252 228.179 279.507 227.612L282.327 226.479C283.83 225.912 285.522 226.479 286.838 227.234C287.966 228.179 289.657 228.746 291.349 228.557L296.048 227.99C298.68 227.99 301.311 227.99 303.943 228.746C306.762 229.69 309.206 230.635 311.462 232.524C313.717 234.413 316.161 235.169 318.98 235.547C321.8 235.924 324.619 236.491 327.251 237.436L329.13 237.814C331.01 238.38 332.514 239.703 333.642 241.592C334.581 243.103 335.521 245.37 335.521 247.259V247.826C335.521 250.093 337.401 251.604 339.281 251.604H340.408C343.416 251.604 346.611 251.982 349.807 252.927L351.123 253.494C353.002 254.249 354.882 255.383 356.198 257.272C357.701 259.161 358.641 261.05 359.205 262.939L359.769 265.584C360.333 268.418 360.521 271.252 360.521 274.274V275.219C360.521 277.108 361.837 278.997 363.904 279.753C365.784 280.131 368.04 280.886 370.107 282.02L371.047 282.398C373.491 283.909 375.934 285.798 377.814 288.065L378.754 289.388C381.197 292.221 382.513 295.811 382.513 299.4V300.723C382.513 303.556 381.949 306.39 381.009 309.035C380.257 311.302 381.009 313.947 383.453 314.702L384.769 315.647C387.588 316.78 390.032 318.858 391.911 321.314C393.791 324.148 394.543 327.36 394.543 330.76V336.428C394.167 338.317 393.603 339.828 392.663 341.151C391.723 342.473 391.723 344.362 392.663 345.685L393.791 347.574L394.167 347.385ZM273.868 250.66H273.492C272.74 250.66 272.364 251.604 272.552 252.549L273.304 256.327C274.056 259.35 274.432 262.373 274.808 265.395C275.184 268.418 276.688 271.063 278.943 272.952H279.695C282.515 275.219 284.206 278.619 284.394 282.02V291.466C284.018 293.355 284.394 295.244 285.522 296.755L286.462 297.7C288.342 299.967 289.093 302.612 289.281 305.257L289.845 315.647C289.845 318.103 288.342 320.181 286.086 320.559L284.206 320.937C282.891 320.937 282.327 322.448 282.327 323.77C282.327 325.282 282.891 326.982 283.454 328.493V328.871C284.018 330.76 284.206 332.649 284.018 334.538L283.267 339.639C282.515 343.418 281.387 346.818 279.507 350.218L278.191 352.485C277.252 354.375 275.936 355.508 274.432 356.264C272.552 357.019 271.237 358.531 270.673 360.42L269.169 367.221C268.229 370.999 266.537 374.778 264.282 378.556H263.906C261.65 381.579 258.831 384.223 255.447 386.112L253.192 387.624L247.553 390.458C245.673 391.213 244.545 392.913 244.169 394.992L243.23 401.226C242.666 405.004 241.35 408.216 238.718 410.672L236.275 413.505L233.455 416.339L230.636 419.362C228.38 422.006 224.997 423.14 221.237 422.573L214.471 421.251L208.268 420.495H206.576C205.824 421.251 205.636 422.384 206.2 423.518C207.516 425.785 209.583 427.296 211.839 427.296L215.974 428.052C217.854 428.052 220.11 428.996 221.989 429.941C223.869 431.263 225.749 432.208 228.004 432.775H228.38C230.824 433.719 233.455 433.908 235.899 433.719L238.718 433.341C241.914 432.964 244.921 433.341 247.553 434.475L249.808 435.231C250.748 435.608 252.252 435.231 253.192 434.286C254.32 433.153 255.447 432.397 256.951 431.83L258.455 431.452C260.898 430.697 263.342 430.319 265.974 430.319H267.477C269.733 430.319 271.801 430.697 273.68 431.83L274.432 432.208C275.748 432.775 277.252 432.208 278.191 431.074C278.755 429.752 280.071 428.43 281.387 427.296L286.086 424.085L289.093 422.195L290.597 421.251C292.477 419.928 295.108 419.362 297.364 419.362L304.131 418.795C306.762 418.417 309.018 416.528 309.77 413.883C310.522 411.049 311.65 408.216 313.529 405.76C315.409 403.304 317.289 401.226 319.168 399.337C321.612 397.447 324.055 396.503 326.687 396.314H328.191C331.198 395.747 333.454 392.913 333.266 389.891V389.513V377.233C333.642 375.344 334.394 372.888 335.521 370.999L339.281 365.332L340.784 363.443C341.912 362.498 342.664 361.176 343.98 359.664L345.859 357.208C346.987 355.319 346.987 352.863 345.484 351.163C343.604 349.274 342.664 346.629 342.288 343.984V343.229C341.912 340.206 341.912 336.994 342.852 333.783V332.838C343.792 330.382 345.108 327.926 346.611 325.659C348.115 323.77 347.927 321.125 346.047 319.614L342.852 316.78C340.22 314.513 338.717 311.113 338.341 307.712L337.965 303.934C337.965 302.801 337.965 301.478 337.589 300.156L337.213 297.322C336.837 294.111 334.957 291.655 332.326 289.765L331.01 289.388C329.13 288.254 327.251 286.554 325.747 284.287C324.243 282.398 323.491 279.753 322.928 277.108L322.364 273.897C322.364 272.763 321.612 272.007 320.484 271.441L317.476 270.496L311.462 268.607C309.582 268.229 307.702 266.718 306.386 265.395H306.011C304.883 263.884 303.003 263.884 301.875 265.017L299.996 266.907C299.62 267.473 299.244 267.662 298.68 267.473C297.552 267.473 296.8 266.529 297.176 265.584C297.552 262.562 296.424 259.539 293.981 257.65L291.537 255.761L285.898 251.982C284.394 251.416 282.139 251.982 281.387 253.871L280.635 255.005C280.635 255.383 280.071 255.572 279.883 255.761C279.131 255.761 278.003 255.761 278.003 254.816L277.44 253.871C276.876 252.738 275.56 251.982 274.432 251.604L273.868 250.66ZM251.312 269.551L250.372 268.607C249.432 267.851 248.493 268.04 247.553 268.985C246.237 271.252 245.109 273.708 244.545 276.164V276.541C243.981 278.997 241.726 280.697 239.47 280.32H237.591H237.215C234.583 280.32 232.515 282.587 232.515 285.231C232.515 288.632 231.388 292.032 229.32 294.677L228.192 295.811C226.313 298.267 223.493 299.967 220.674 300.911L219.17 301.289C217.29 301.856 215.786 303.178 215.41 305.445C215.41 307.335 214.283 309.224 212.779 310.735L210.899 312.246C208.644 314.702 205.26 316.025 201.877 316.403L192.479 317.347C189.471 317.347 186.839 319.236 184.96 322.07C183.08 324.904 180.261 326.793 177.441 327.171L173.306 327.549C170.298 327.926 167.103 327.926 163.908 327.171L162.028 326.793L156.953 325.471C155.073 324.904 153.569 325.471 152.442 326.793L150.562 329.249C148.118 332.083 144.547 333.405 141.164 333.027L128.946 331.516C127.066 331.516 125.562 330.571 123.871 329.627C121.991 328.493 120.675 327.171 119.359 325.848L114.66 320.181C114.096 319.803 113.156 319.614 112.217 319.803L109.585 320.937L99.059 323.581C97.1793 324.148 94.7357 323.581 92.8561 322.448C90.9764 320.937 88.7208 320.559 86.4652 320.559H84.0216C81.766 321.125 80.2623 323.581 81.0141 325.848L81.766 329.627C82.3299 331.516 82.1419 333.783 81.2021 335.672C80.2623 337.561 80.4502 339.45 81.766 341.339L82.8938 342.851C84.3975 345.118 86.6531 347.007 88.5328 348.896C90.4125 350.785 92.2922 352.674 93.7959 355.13L96.6154 360.231C98.1191 362.876 100.375 364.387 103.382 364.387C106.202 364.387 109.021 365.332 111.277 367.221L116.916 372.511C118.42 373.833 120.675 374.022 122.179 372.888L123.119 372.511C124.247 372.511 124.998 373.266 124.998 374.4V375.344C124.998 377.8 126.878 380.067 129.322 381.012L137.78 382.901C140.788 383.845 143.795 384.79 146.615 386.679H148.118C149.622 386.679 150.938 385.357 150.75 383.657V377.045C150.75 375.155 151.502 373.266 153.005 372.511L153.945 372.133C154.885 372.511 155.825 373.266 155.449 374.022V377.233C155.449 379.689 156.201 381.956 157.893 383.657C159.772 385.546 162.216 385.924 164.283 385.168C166.539 384.223 168.795 384.034 171.238 384.223L178.193 384.601C181.576 384.979 184.772 384.601 187.591 383.279C190.975 382.145 193.794 380.634 196.426 378.556L197.554 377.8L203.193 372.699C205.072 370.81 207.516 369.866 209.771 369.866H217.29C221.049 369.488 224.433 366.087 224.809 362.309L225.561 358.531C225.561 356.075 226.688 353.808 228.38 351.919C230.26 350.03 232.14 348.896 234.019 348.14L236.275 347.196C239.47 345.873 241.914 343.04 243.042 339.639L244.169 335.105C245.109 331.327 246.989 327.549 249.808 325.093L250.184 324.715C252.44 322.826 252.816 319.047 251.312 316.403L250.748 315.08C249.432 313.191 249.245 310.357 250.184 307.901C251.124 305.257 252.064 302.99 253.568 300.723L255.447 298.078C256.199 296.566 256.199 294.299 255.071 292.977C253.944 291.466 253.192 289.577 253.192 287.687L252.816 285.043V278.619C253.192 276.73 252.816 274.274 252.252 272.385L251.5 270.118L251.312 269.551ZM224.433 255.194V254.627C224.433 252.738 223.305 251.604 221.801 251.604H216.914C215.035 251.982 213.155 251.982 211.651 251.604H203.193C198.869 251.604 194.734 250.849 190.599 249.715L186.088 248.582L182.328 247.448L173.87 244.615C169.359 243.292 165.975 240.27 163.908 236.113L162.968 234.224C161.652 231.39 158.832 229.879 156.013 230.446C152.817 230.446 149.622 230.446 146.615 228.935L144.359 227.99C140.036 226.101 136.84 222.323 136.84 217.222L136.088 212.121C135.525 209.476 133.833 207.02 131.577 206.076C128.946 204.942 126.502 203.431 124.059 201.731L123.119 201.164C120.299 198.897 117.856 195.874 116.54 192.285L116.164 191.151C115.224 188.129 115.036 184.917 115.788 181.706L116.164 180.572C116.916 178.116 117.104 175.66 117.104 173.016C117.104 170.749 116.164 168.482 114.472 166.781L111.841 164.325C108.833 161.869 106.954 158.28 106.766 154.313C106.39 150.157 106.39 146.189 107.142 142.222V141.655V141.089C107.142 138.822 105.262 137.31 103.382 137.31H102.818C100.375 137.31 98.3071 138.822 97.1793 141.089C96.2395 143.734 94.7357 145.812 93.044 147.89L92.2922 148.834L88.5328 152.613L86.6531 154.502C84.7735 156.391 83.6457 159.225 83.2697 162.058C82.8938 164.892 82.1419 167.726 81.0141 170.371L80.6382 171.315C79.6984 173.582 78.1946 175.66 76.315 176.983C74.4353 178.494 73.1195 180.761 73.1195 183.028L72.7436 191.718C72.7436 195.496 72.1797 199.275 70.8639 203.053L70.488 204.564C69.5482 207.02 70.488 209.665 72.7436 210.799L80.6382 214.199L81.3901 214.577C81.954 214.577 82.1419 214.955 82.3299 215.522C82.8938 216.277 82.3299 217.411 81.766 217.411L79.8863 218.355C78.7585 218.733 78.0067 219.867 77.6307 221.189L77.2548 223.078V223.456L75.3751 234.035C74.9992 235.547 74.9992 237.247 74.9992 238.947C74.9992 240.458 75.939 241.781 77.2548 242.348L81.3901 244.237C83.2697 245.37 85.5253 246.693 87.0291 248.015L88.9087 249.526C89.4726 250.282 90.4125 251.038 91.1643 251.416L91.9162 252.171C93.232 253.305 94.1718 254.816 94.5478 256.516L96.4274 265.017C96.4274 267.284 98.3071 269.174 100.187 269.74L103.194 270.685C103.194 270.685 103.758 270.685 104.134 271.063L107.893 272.196C110.901 273.141 113.532 274.841 115.788 277.108C118.044 278.997 120.299 281.453 122.179 284.098L122.931 284.854C124.434 286.743 126.69 287.687 128.946 287.121C131.201 286.554 133.645 286.365 136.088 286.365H138.908C140.788 286.365 143.231 286.932 145.299 288.254C147.178 289.388 149.622 290.143 151.878 291.088H152.442C154.697 292.032 157.141 291.655 159.02 290.332C160.9 288.821 163.344 288.065 165.787 288.065L174.622 288.632C176.501 288.632 178.381 288.254 179.321 286.743H179.697L182.892 283.72L183.832 282.776C185.336 280.886 187.591 280.131 189.847 279.942H198.305C200.561 279.942 202.629 278.053 203.569 276.164C204.508 274.274 206.388 272.763 208.644 272.385L212.403 271.63C213.907 271.63 215.222 270.307 215.786 268.607C216.35 266.718 217.29 265.206 218.606 264.073L221.613 261.05C223.493 259.161 224.433 257.272 224.809 255.005L224.433 255.194Z" fill="#323232"/>
</svg>
