<svg width="2233" height="2233" viewBox="0 0 2233 2233" fill="none" xmlns="http://www.w3.org/2000/svg">
<path d="M277.728 2201.85C277.728 2201.85 281.093 1674.27 281.093 1137.94C281.093 99.1389 193.502 21.7642 659.895 21.7642H1958.09V1520.16C1958.09 2013.42 2050.35 2206.65 1531.65 2206.65C1012.95 2206.65 277.735 2201.86 277.735 2201.86L277.728 2201.85Z" fill="#A62C39"/>
<path d="M1348.05 217.728C1348.05 217.728 1431.24 234.357 1503.33 356.281C1575.43 478.212 1958.08 1425.94 1958.08 1425.94V655.557L1603.15 79.1744L1702.98 201.105L1891.53 45.9095L1647.52 29.2939L1348.05 217.728Z" fill="url(#paint0_linear)"/>
<path opacity="0.668" d="M610.471 34.8347C610.471 34.8347 1159.49 400.621 1425.69 472.671C1691.88 544.721 1963.63 622.522 1963.63 622.522L1336.96 2174.14L1608.7 2185.22L1963.63 1315.18L1952.53 29.2939L610.471 34.8415V34.8347Z" fill="url(#paint1_radial)"/>
<path d="M1120.68 1669.79L1678.61 2205.74L627.103 2196.3C627.103 2196.3 593.831 1858.23 604.926 1680.88C616.015 1503.53 671.471 1503.53 671.471 1503.53L1120.68 1669.79Z" fill="white" fill-opacity="0.44"/>
<path d="M1647.52 2207.39L1131.77 1675.34L660.383 1497.98L294.368 683.274L682.566 34.8413H433.881L316.551 123.514L277.728 201.105V2207.39H1647.52Z" fill="black" fill-opacity="0.362"/>
<path opacity="0.5" d="M1963.63 1359.43C1963.63 1359.43 1442.33 1525.69 1131.77 1680.88C821.206 1836.07 654.838 2212.93 654.838 2212.93C654.838 2212.93 1320.32 2179.68 1569.88 2190.76C1819.43 2201.85 1935.9 2201.85 1958.08 1852.69C1980.27 1503.53 1963.63 1359.43 1963.63 1359.43V1359.43Z" fill="#83222D"/>
<path d="M438.417 1690.42V2017.76H521.953V1932.5L597.988 2008.48H726.169L624.504 1906.88C624.504 1906.88 697.649 1905.7 703.186 1799.98C703.186 1702.99 629.96 1690.42 545.389 1690.42H438.417ZM525.933 1779.22H597.988V1837.53H525.926V1779.21L525.933 1779.22ZM887.507 1691.75C841.772 1691.49 778.328 1695.73 778.328 1781.86V2009.37H864.085V1953.71H947.181V2008.04H1033.38V1769.5C1033.38 1694.67 950.2 1691.75 905.636 1691.75C900.065 1691.75 894.047 1691.8 887.507 1691.75V1691.75ZM865.411 1773.91H945.854V1863.59H865.418V1773.91H865.411ZM1119.29 1691.97H1208.02V2005.1H1119.29V1691.97ZM1300.92 1696.13V2009.26H1514.43V1926.13H1388.26V1694.73L1300.92 1696.12V1696.13ZM1797.25 1693.35V1777.87H1654.45V1808.35H1715.45C1747.34 1808.35 1813.89 1806.97 1813.89 1906.73C1813.89 2006.48 1768.14 2012.03 1675.25 2012.03H1562.94V1935.82H1691.88C1730.71 1935.82 1732.85 1923.2 1732.85 1912.19C1732.85 1901.18 1713 1896.07 1672.63 1896.07C1632.27 1896.07 1557.4 1876.25 1557.4 1798.65C1557.4 1721.06 1596.22 1691.96 1673.86 1691.96C1751.5 1691.96 1797.25 1693.35 1797.25 1693.35Z" fill="white"/>
<path d="M516.191 1597.75H1253.77C1253.77 1597.75 1090.17 1226.42 1131.77 885.563C1173.36 544.721 1442.33 389.539 1594.83 372.91C1747.35 356.288 1830.53 450.508 1830.53 450.508L1863.8 400.621C1863.8 400.621 1644.75 178.935 1367.46 203.872C1090.18 228.816 898.846 411.702 779.614 633.401C660.382 855.086 591.062 1010.27 543.919 1243.04C496.783 1475.81 516.191 1597.75 516.191 1597.75V1597.75ZM369.232 1226.41L513.423 1237.51L488.463 1381.6L352.599 1364.97L369.232 1226.42V1226.41ZM596.607 921.595L635.43 813.52L507.878 763.639L466.28 880.029L596.607 921.595ZM776.845 550.262L851.71 461.596L754.662 397.86L677.015 483.766L776.845 550.269V550.262ZM973.717 206.646L1040.26 287.004L1131.77 234.357L1065.22 159.533L973.717 206.646ZM1298.14 115.2L1314.78 195.558L1428.47 192.784L1417.37 120.74L1298.14 115.193V115.2Z" fill="white"/>
<path d="M1683.57 201.105L1680.79 250.986L1758.43 292.552L1775.07 267.608L1683.57 201.105ZM1666.93 414.476V456.049L1741.8 464.357V431.105L1666.93 414.476V414.476ZM1428.47 450.501L1464.51 517.011L1517.2 475.445L1506.11 431.105L1428.46 450.501H1428.47ZM1314.78 536.407L1370.24 619.539L1336.96 677.734L1256.55 589.061L1314.78 536.407ZM1203.86 766.413L1167.81 838.464L1262.09 918.822L1284.28 827.375L1203.86 766.413V766.413ZM1165.04 1018.58L1159.5 1115.57L1275.96 1165.45L1270.41 1074L1165.04 1018.58H1165.04ZM1198.32 1362.2L1226.04 1461.96L1373.01 1470.28L1320.32 1362.2H1198.32V1362.2Z" fill="white"/>
<path d="M298.944 2201.99L298.984 2195.93L299.093 2178.26L299.472 2111.15C299.864 2038.84 300.257 1958.15 300.622 1871.11C301.679 1622.42 302.308 1372.62 302.308 1137.95C302.308 1017.03 301.266 911.427 299.038 763.673C292.228 312.225 295.505 226.238 333.211 145.102C371.093 63.5937 442.2 42.9595 659.895 42.9595H1958.09L1936.87 21.7571V1520.15C1936.87 1566.14 1937.37 1605.82 1938.56 1672.65C1943.21 1930.25 1937.5 2003.5 1895.9 2071.38C1847.24 2150.79 1742.48 2185.44 1531.65 2185.44C1412.62 2185.44 1272.58 2185.17 1115.84 2184.65C989.768 2184.25 856.123 2183.7 718.607 2183.04C574.569 2182.36 430.532 2181.58 286.494 2180.7L277.87 2180.65L298.95 2201.99H298.944ZM256.377 2222.92L277.593 2223.05C288.767 2223.12 299.941 2223.19 311.115 2223.26C446.873 2224.07 582.632 2224.8 718.391 2225.45C855.934 2226.11 989.598 2226.65 1115.7 2227.07C1272.48 2227.57 1412.56 2227.84 1531.64 2227.84C1755.77 2227.84 1873.67 2188.85 1932.08 2093.53C1979.94 2015.44 1985.82 1939.94 1980.99 1671.89C1979.79 1605.3 1979.3 1565.82 1979.3 1520.15V0.554688H659.895C426.482 0.554688 342.242 24.9909 294.726 127.235C270.972 178.347 259.498 249.105 255.334 358.425C252.126 442.667 252.457 489.097 256.614 764.316C258.834 911.873 259.877 1017.28 259.877 1137.95C259.877 1372.56 259.24 1622.29 258.191 1870.93C257.759 1973.29 257.246 2075.65 256.654 2178L256.553 2195.66L256.377 2222.93V2222.92Z" fill="#5E000E"/>
<defs>
<linearGradient id="paint0_linear" x1="1562.81" y1="938.218" x2="1982" y2="896.357" gradientUnits="userSpaceOnUse">
<stop stop-color="white"/>
<stop offset="1" stop-color="#C0815E"/>
</linearGradient>
<radialGradient id="paint1_radial" cx="0" cy="0" r="1" gradientUnits="userSpaceOnUse" gradientTransform="translate(1287.05 1107.26) scale(683.627 1089.2)">
<stop stop-color="white"/>
<stop offset="1" stop-color="#A94436"/>
</radialGradient>
</defs>
</svg>
