<svg width="2465" height="1493" viewBox="0 0 2465 1493" fill="none" xmlns="http://www.w3.org/2000/svg">
<path d="M1321.26 541.488C1321.24 523.599 1325.95 506.018 1334.89 490.521C1343.84 475.029 1356.71 462.163 1372.21 453.229C1387.71 444.29 1405.29 439.596 1423.18 439.623C1441.07 439.644 1458.64 444.386 1474.12 453.362C1566.36 419.496 1669.1 401.777 1775.92 401.777C2061.96 401.777 2307.3 529.544 2390.24 713.419C2389.53 756.954 2327.7 777.225 2303.02 750.508C2235.02 602.822 2020.2 496.504 1775.92 496.504C1687.13 496.504 1601.91 510.056 1524.76 535.948C1525.51 549.543 1523.54 563.155 1518.94 575.972C1514.35 588.79 1507.23 600.553 1498.01 610.574C1488.78 620.594 1477.65 628.66 1465.26 634.296C1452.86 639.938 1439.47 643.033 1425.86 643.406C1412.25 643.774 1398.7 641.414 1386.02 636.454C1373.34 631.5 1361.78 624.052 1352.02 614.548C1342.27 605.044 1334.53 593.686 1329.24 581.134C1323.96 568.588 1321.24 555.105 1321.26 541.488ZM2465 920.398C2465.01 904.15 2461.13 888.136 2453.7 873.693C2446.25 859.251 2435.46 846.795 2422.23 837.371C2409 827.952 2393.7 821.831 2377.62 819.524C2361.54 817.218 2345.14 818.795 2329.79 824.122C2314.44 829.444 2300.59 838.367 2289.39 850.136C2278.2 861.909 2269.98 876.186 2265.42 891.785C2260.87 907.378 2260.11 923.84 2263.21 939.785C2266.32 955.735 2273.19 970.705 2283.26 983.459C2250.73 1033.47 2200.17 1078.77 2135.39 1115.16C2035.32 1171.26 1907.68 1202.18 1775.88 1202.18C1661.75 1202.18 1552.18 1179.59 1458.91 1136.77C1395.9 1107.81 1343.49 1071.27 1304.32 1029.19C1278.36 1014.06 1218.32 1062.31 1240.09 1099.08C1357.72 1221.43 1557.21 1296.95 1775.88 1296.95C1923.63 1296.95 2067.77 1261.75 2181.74 1197.78C2265.27 1150.91 2330.09 1090.2 2370.87 1021.92C2396.46 1019.96 2420.37 1008.42 2437.82 989.596C2455.27 970.774 2464.97 946.066 2465 920.398Z" fill="#89D96D"/>
<path d="M503.155 1111.5C410.283 991.075 357.678 821.147 357.678 637.667C357.678 470.685 401.719 313.096 481.665 193.896C565.466 68.8351 678.846 0 800.868 0C912.086 0 1018.12 58.6173 1099.49 165.016C1176.29 265.517 1226.26 402.601 1240.13 551.076C1207.16 532.856 1173.18 516.549 1138.34 502.239C1098.93 266.225 960.015 94.7263 800.868 94.7263C711.412 94.7263 625.966 148.671 560.279 246.658C490.701 350.425 452.357 489.31 452.357 637.709C452.357 800.839 500.562 955.717 582.398 1059.05C605.034 1056.79 627.776 1062.18 646.988 1074.36C666.205 1086.54 680.795 1104.8 688.42 1126.24C696.05 1147.67 696.284 1171.04 689.08 1192.62C681.881 1214.2 667.658 1232.75 648.692 1245.31C629.72 1257.87 607.089 1263.7 584.411 1261.9C561.738 1260.1 540.317 1250.75 523.57 1235.36C506.819 1219.96 495.711 1199.4 492.01 1176.95C488.31 1154.5 492.234 1131.46 503.155 1111.5ZM1227.72 609.341C1061.46 513.315 875.942 475.208 722.413 502C706.199 486.076 685.124 476.029 662.541 473.461C639.959 470.898 617.169 475.965 597.798 487.85C578.426 499.736 563.586 517.763 555.641 539.062C547.702 560.356 547.111 583.695 553.964 605.367C560.822 627.039 574.725 645.791 593.474 658.646C612.217 671.496 634.725 677.707 657.408 676.29C680.092 674.873 701.646 665.907 718.643 650.82C735.645 635.733 747.109 615.393 751.209 593.034C880.425 573.941 1037.29 608.75 1180.34 691.378C1355.04 792.236 1478.6 948.802 1502.76 1093.97C1532.89 1106.55 1565.78 1117.31 1601.37 1125.68C1592.1 937.093 1447.41 736.128 1227.72 609.341ZM1252.82 1394.34C1161.13 1406.01 1057.1 1391.44 954.791 1353.17C925.404 1375.88 894.291 1397.17 861.602 1416.86C970.27 1466.76 1084.12 1492.96 1189.72 1492.96C1215.3 1492.96 1240.44 1491.43 1264.84 1488.32C1391.3 1472.26 1491.52 1415.21 1549.16 1327.04C1516.54 1319.14 1484.4 1309.37 1452.91 1297.77C1408.55 1349.51 1339.05 1383.38 1252.82 1394.34ZM1151.42 1022.19C1174.17 1021.95 1196.18 1014.09 1213.95 999.881C1231.71 985.662 1244.2 965.908 1249.43 943.768C1254.66 921.627 1252.32 898.368 1242.79 877.708C1233.27 857.049 1217.09 840.171 1196.85 829.778C1176.62 819.379 1153.48 816.06 1131.14 820.348C1108.8 824.631 1088.54 836.277 1073.58 853.426C1058.63 870.57 1049.85 892.231 1048.64 914.952C1047.43 937.673 1053.86 960.144 1066.91 978.779C1047.55 1025.38 1019.14 1072.01 982.922 1116.45C926.9 1185.13 853.237 1246.89 769.91 1295.02C653.585 1362.24 528.299 1398.31 413.072 1398.27C401.051 1398.27 389.107 1397.88 377.322 1397.1C259.62 1389.2 170.204 1342.17 125.457 1264.73C46.1767 1127.37 125.221 920.791 309.553 768.854C305.02 735.051 302.266 701.031 301.303 666.941L296.077 659.669C176.018 745.989 83.6955 857.416 36.041 973.319C-14.442 1096.14 -11.81 1216.44 43.427 1312.07C104.439 1417.72 220.766 1481.53 370.957 1491.63C384.747 1492.53 398.694 1493 412.758 1493C544.566 1493 686.583 1452.53 817.252 1377.05C973.023 1287.16 1092.61 1158.77 1151.42 1022.19Z" fill="#999999"/>
</svg>
