<svg width="500" height="500" viewBox="0 0 500 500" fill="none" xmlns="http://www.w3.org/2000/svg">
<path d="M266.143 212.017C266.14 208.659 267.024 205.359 268.704 202.45C270.384 199.542 272.801 197.127 275.712 195.45C278.623 193.772 281.925 192.891 285.285 192.896C288.645 192.9 291.944 193.79 294.851 195.475C312.174 189.118 331.468 185.792 351.529 185.792C405.248 185.792 451.324 209.775 466.9 244.29C466.767 252.462 455.154 256.267 450.52 251.252C437.749 223.53 397.406 203.573 351.529 203.573C334.854 203.573 318.851 206.117 304.361 210.977C304.503 213.529 304.132 216.084 303.269 218.49C302.406 220.896 301.069 223.104 299.337 224.985C297.605 226.866 295.514 228.38 293.187 229.438C290.859 230.497 288.343 231.078 285.787 231.148C283.231 231.217 280.687 230.774 278.305 229.843C275.924 228.913 273.753 227.515 271.921 225.731C270.09 223.947 268.635 221.815 267.642 219.459C266.65 217.104 266.14 214.573 266.143 212.017V212.017ZM480.94 283.142C480.942 280.092 480.214 277.086 478.817 274.375C477.419 271.664 475.393 269.326 472.908 267.557C470.423 265.789 467.55 264.64 464.53 264.207C461.51 263.774 458.43 264.07 455.548 265.07C452.665 266.069 450.064 267.744 447.961 269.953C445.858 272.163 444.314 274.843 443.459 277.771C442.604 280.698 442.461 283.788 443.044 286.781C443.627 289.775 444.918 292.585 446.809 294.979C440.7 304.367 431.204 312.87 419.038 319.7C400.246 330.231 376.275 336.035 351.522 336.035C330.088 336.035 309.511 331.795 291.995 323.756C280.161 318.32 270.319 311.462 262.963 303.563C258.086 300.724 246.812 309.78 250.9 316.683C272.99 339.649 310.455 353.824 351.522 353.824C379.27 353.824 406.34 347.216 427.744 335.209C443.43 326.411 455.604 315.016 463.262 302.199C468.068 301.831 472.558 299.664 475.835 296.131C479.112 292.598 480.935 287.96 480.94 283.142V283.142Z" fill="#89D96D"/>
<path d="M112.502 319.014C95.0604 296.409 85.1812 264.512 85.1812 230.071C85.1812 198.727 93.452 169.146 108.466 146.771C124.204 123.296 145.497 110.375 168.413 110.375C189.3 110.375 209.214 121.378 224.494 141.35C238.918 160.215 248.303 185.947 250.907 213.817C244.716 210.397 238.333 207.336 231.79 204.65C224.39 160.348 198.301 128.156 168.413 128.156C151.613 128.156 135.566 138.282 123.23 156.675C110.163 176.153 102.962 202.223 102.962 230.079C102.962 260.7 112.015 289.772 127.384 309.168C131.635 308.745 135.906 309.757 139.514 312.043C143.123 314.329 145.863 317.756 147.295 321.78C148.728 325.803 148.772 330.19 147.419 334.241C146.067 338.292 143.396 341.774 139.834 344.131C136.271 346.488 132.021 347.584 127.762 347.246C123.504 346.907 119.481 345.153 116.336 342.263C113.19 339.372 111.104 335.513 110.409 331.299C109.714 327.085 110.451 322.76 112.502 319.014V319.014ZM248.576 224.754C217.352 206.729 182.512 199.576 153.679 204.605C150.634 201.616 146.676 199.73 142.435 199.248C138.194 198.767 133.914 199.718 130.276 201.949C126.638 204.18 123.851 207.564 122.359 211.562C120.868 215.559 120.757 219.94 122.044 224.008C123.332 228.076 125.943 231.596 129.464 234.009C132.984 236.421 137.211 237.587 141.471 237.321C145.731 237.055 149.779 235.372 152.971 232.54C156.164 229.708 158.317 225.89 159.087 221.693C183.354 218.109 212.814 224.643 239.678 240.153C272.488 259.085 295.692 288.474 300.229 315.724C305.888 318.084 312.064 320.105 318.748 321.676C317.007 286.276 289.834 248.553 248.576 224.754ZM253.29 372.106C236.07 374.297 216.533 371.561 197.32 364.377C191.801 368.64 185.958 372.637 179.819 376.332C200.227 385.699 221.609 390.618 241.441 390.618C246.244 390.618 250.966 390.33 255.548 389.747C279.298 386.731 298.119 376.023 308.943 359.473C302.817 357.99 296.782 356.155 290.867 353.979C282.537 363.691 269.485 370.049 253.29 372.106V372.106ZM234.247 302.25C238.52 302.204 242.654 300.73 245.99 298.062C249.326 295.393 251.672 291.685 252.654 287.529C253.636 283.373 253.197 279.007 251.407 275.129C249.618 271.251 246.581 268.083 242.78 266.132C238.98 264.18 234.635 263.557 230.439 264.362C226.243 265.166 222.438 267.352 219.629 270.571C216.821 273.789 215.172 277.855 214.945 282.12C214.718 286.385 215.926 290.603 218.377 294.101C214.74 302.848 209.405 311.602 202.603 319.943C192.082 332.835 178.248 344.428 162.599 353.462C140.753 366.081 117.224 372.851 95.5843 372.844C93.3266 372.844 91.0836 372.77 88.8702 372.623C66.7656 371.14 49.9731 362.312 41.5695 347.776C26.6806 321.993 41.5253 283.216 76.1431 254.696C75.2919 248.351 74.7747 241.965 74.5937 235.566L73.6124 234.201C51.0651 250.404 33.7267 271.32 24.7771 293.076C15.2963 316.13 15.7906 338.712 26.1642 356.663C37.6223 376.495 59.4687 388.472 87.675 390.367C90.2647 390.537 92.8839 390.625 95.5252 390.625C120.279 390.625 146.95 383.029 171.49 368.861C200.744 351.987 223.202 327.886 234.247 302.25V302.25Z" fill="#999999"/>
</svg>
