<svg width="4024" height="4024" viewBox="0 0 4024 4024" fill="none" xmlns="http://www.w3.org/2000/svg">
<path d="M3250.5 4024H773.496C671.914 4023.59 574.611 3983.04 502.781 3911.21C430.951 3839.37 390.414 3742.06 390 3640.46V383.538C390.414 281.944 430.951 184.63 502.781 112.793C574.611 40.955 671.914 0.413826 773.496 0L3250.5 0C3352.09 0.413826 3449.39 40.955 3521.22 112.793C3593.05 184.63 3633.59 281.944 3634 383.538V3640.46C3633.59 3742.06 3593.05 3839.37 3521.22 3911.21C3449.39 3983.04 3352.09 4023.59 3250.5 4024V4024Z" fill="#6762A6"/>
<path d="M2423.8 3469.91V1872.1C2423.8 1872.1 2527.53 1489.35 1142.86 2029.28C1141.29 2043.43 1141.29 550.15 1141.29 550.15L1592.36 547.792V1490.92C1592.36 1490.92 2857.59 991.847 2857.59 1868.17V3460.48H2421.44L2423.8 3469.91ZM2681.56 1123.1H2210.04C2382.93 910.896 2540.1 549.364 2540.1 549.364H3035.19C3035.19 549.364 2950.32 785.146 2689.41 1123.1H2681.56ZM1149.14 3466.76V2557.43L1604.94 3013.28L1149.14 3469.12V3466.76Z" fill="white"/>
</svg>
