<svg width="39" height="38" viewBox="0 0 39 38" fill="none" xmlns="http://www.w3.org/2000/svg">
<path d="M20.0472 9.91413e-05C18.4922 0.00409914 17.4142 0.140099 16.1092 0.367099C12.2622 1.0351 11.5622 2.4451 11.5622 5.0351V9.0001H20.5622V11.0001H6.87221C4.23421 11.0001 1.92621 12.2421 1.19521 15.2191C0.37121 18.6371 0.33221 20.7771 1.19521 24.3441C1.85221 27.0041 3.29321 29.0001 5.93021 29.0001H9.56321V23.8951C9.56321 20.9301 12.2502 18.0001 15.3282 18.0001H22.5632C25.0862 18.0001 27.5632 16.1371 27.5632 13.6211V5.0351C27.5632 2.5981 25.8052 0.773099 23.3432 0.363099C23.4062 0.359099 21.5902 -0.00690086 20.0472 9.91413e-05V9.91413e-05ZM15.0622 4.0001C15.8822 4.0001 16.5622 4.6761 16.5622 5.5041C16.5612 5.90123 16.4026 6.28173 16.1215 6.56217C15.8403 6.84261 15.4593 7.0001 15.0622 7.0001C14.8652 7.00142 14.6699 6.96366 14.4875 6.889C14.3052 6.81434 14.1395 6.70426 14 6.56513C13.8605 6.426 13.75 6.26059 13.6748 6.07846C13.5997 5.89634 13.5614 5.70112 13.5622 5.5041C13.5622 4.6801 14.2272 4.0001 15.0622 4.0001Z" fill="#0277BD"/>
<path d="M19.078 38C20.633 37.996 21.711 37.86 23.016 37.633C26.863 36.965 27.563 35.555 27.563 32.965V29H18.563V27H32.258C34.891 27 37.199 25.758 37.93 22.781C38.758 19.363 38.793 17.223 37.93 13.656C37.273 10.996 35.832 9 33.195 9H29.562V14.105C29.562 17.07 26.875 20 23.797 20H16.562C14.039 20 11.562 21.863 11.562 24.379V32.965C11.562 35.402 13.32 37.227 15.782 37.637C15.719 37.641 17.535 38.007 19.078 38V38ZM24.063 34C23.243 34 22.563 33.324 22.563 32.496C22.5641 32.0989 22.7226 31.7184 23.0038 31.4379C23.285 31.1575 23.6659 31 24.063 31C24.898 31 25.563 31.664 25.563 32.496C25.563 33.32 24.898 34 24.063 34Z" fill="#FFC107"/>
</svg>
