<?xml version="1.0" encoding="UTF-8" standalone="no"?><svg xmlns="http://www.w3.org/2000/svg" xmlns:xlink="http://www.w3.org/1999/xlink" width="48px" height="48px" viewBox="0 0 48 48" version="1.1"><title>Trello-color</title><g id="Icons" stroke="none" stroke-width="1" fill="none" fill-rule="evenodd"><g id="Color-" transform="translate(-200.000000, -760.000000)" fill="#007AC2"><path d="M206 769v27a3 3 0 0 0 3 3h9a3 3 0 0 0 3-3v-27a3 3 0 0 0-3-3h-9a3 3 0 0 0-3 3zm21 0v15a3 3 0 0 0 3 3h9a3 3 0 0 0 3-3v-15a3 3 0 0 0-3-3h-9a3 3 0 0 0-3 3zm-21-9c-3.314 0-6 2.688-6 6v36c0 3.313 2.688 6 6 6h36c3.314 0 6-2.688 6-6v-36c0-3.313-2.688-6-6-6h-36z" id="Trello"/></g></g><metadata><rdf:RDF xmlns:rdf="http://www.w3.org/1999/02/22-rdf-syntax-ns#" xmlns:rdfs="http://www.w3.org/2000/01/rdf-schema#" xmlns:dc="http://purl.org/dc/elements/1.1/"><rdf:Description about="https://iconscout.com/legal#licenses" dc:title="trello,color" dc:description="trello,color" dc:publisher="Iconscout" dc:date="2017-09-14" dc:format="image/svg+xml" dc:language="en"><dc:creator><rdf:Bag><rdf:li>Alexis Doreau</rdf:li></rdf:Bag></dc:creator></rdf:Description></rdf:RDF></metadata></svg>